<svg width="58" height="59" viewBox="0 0 58 59" fill="none" xmlns="http://www.w3.org/2000/svg">
<rect y="0.5" width="58" height="58" rx="29" fill="#EAF3FF"/>
<path d="M19.6663 19H38.333C38.9518 19 39.5453 19.2458 39.9829 19.6834C40.4205 20.121 40.6663 20.7145 40.6663 21.3333V28.3333C40.6663 31.4275 39.4372 34.395 37.2493 36.5829C35.0613 38.7708 32.0939 40 28.9997 40C27.4676 40 25.9505 39.6982 24.535 39.1119C23.1196 38.5256 21.8334 37.6663 20.7501 36.5829C18.5622 34.395 17.333 31.4275 17.333 28.3333V21.3333C17.333 20.7145 17.5788 20.121 18.0164 19.6834C18.454 19.2458 19.0475 19 19.6663 19V19Z" stroke="#2A85FF" stroke-width="3" stroke-linecap="round" stroke-linejoin="round"/>
<path d="M24.333 27.1665L28.9997 31.8332L33.6663 27.1665" stroke="#2A85FF" stroke-width="3" stroke-linecap="round" stroke-linejoin="round"/>
</svg>
