<svg width="58" height="59" viewBox="0 0 58 59" fill="none" xmlns="http://www.w3.org/2000/svg">
<rect y="0.5" width="58" height="58" rx="29" fill="#FFEFEB"/>
<path d="M32.8078 33.8588C32.8078 33.8588 32.8039 38.8194 32.7921 41.3018C28.5961 43.2821 24.4706 45.4076 20.2589 47.3527C20.251 44.6076 20.2157 41.8626 20.2746 39.1176C21.6667 38.4077 23.1177 37.8155 24.4784 37.0469C24.4471 34.6196 24.4627 32.1959 24.4627 29.7686C27.2117 30.992 30.0784 32.6234 32.8078 33.8939L32.8078 33.8588Z" fill="#0053BA"/>
<path d="M28.243 20.5392L28.4017 11.6475L20.334 16.7163L28.243 20.5392Z" fill="#0053BA"/>
<path d="M37.7581 32.7862L37.6877 24.5721L20.911 16.4629L20.2412 16.829L20.2623 24.3294L37.7581 32.7862Z" fill="#FF5E2F"/>
</svg>
