<svg width="600" height="150" viewBox="0 0 600 150" fill="none" xmlns="http://www.w3.org/2000/svg">
<mask id="mask0_203_33" style="mask-type:alpha" maskUnits="userSpaceOnUse" x="0" y="0" width="600" height="150">
<rect width="600" height="150" fill="#000051"/>
</mask>
<g mask="url(#mask0_203_33)">
<rect width="600" height="150" fill="#000051"/>
<path d="M502.083 -21C534.734 -5.74408 566.905 10.5817 599.49 26.0344C599.949 40.0027 599.666 53.9926 599.643 67.9609C598.159 68.7905 596.675 69.598 595.169 70.4055C581.746 63.2907 567.974 56.8737 554.333 50.2169C553.897 49.9986 553.024 49.5621 552.587 49.3438C535.803 41.0065 518.91 32.8653 502.039 24.6812C502.061 9.44681 501.974 -5.78762 502.083 -21Z" fill="#00CCFF"/>
<path d="M553.94 95.8982C553.94 95.8982 553.918 123.508 553.853 137.323C530.5 148.345 507.539 160.175 484.098 171C484.054 155.721 483.858 140.444 484.186 125.167C491.934 121.216 500.009 117.92 507.583 113.642C507.408 100.132 507.495 86.6443 507.495 73.1334C522.795 79.9434 538.749 89.0227 553.94 96.0945V95.8982Z" fill="#0053BA"/>
<path d="M554.331 50.2164C567.971 56.8732 581.743 63.2896 595.167 70.405C581.569 79.1353 567.776 87.5388 553.938 95.8977C553.938 70.6001 553.998 70.6001 554.331 50.2164Z" fill="#F1A432"/>
</g>
</svg>
