<svg width="58" height="58" viewBox="0 0 58 58" fill="none" xmlns="http://www.w3.org/2000/svg">
<circle cx="29" cy="29" r="29" fill="#FBFAF9"/>
<path d="M28.9998 13.1667C20.2693 13.1667 13.1665 20.2695 13.1665 29C13.1665 37.7305 20.2693 44.8333 28.9998 44.8333C37.7303 44.8333 44.8332 37.7305 44.8332 29C44.8332 20.2695 37.7303 13.1667 28.9998 13.1667ZM30.5832 36.7821V38.5H27.4165V36.79C23.7131 36.2089 22.6665 33.6202 22.6665 32.1667H25.8332C25.8506 32.3931 26.0849 33.75 28.9998 33.75C31.1848 33.75 32.1665 32.8238 32.1665 32.1667C32.1665 31.6537 32.1665 30.5833 28.9998 30.5833C23.4898 30.5833 22.6665 27.6067 22.6665 25.8333C22.6665 23.794 24.2958 21.742 27.4165 21.2179V19.519H30.5832V21.2749C33.3287 21.9241 34.3832 24.2088 34.3832 25.8333H32.7998L31.2165 25.8618C31.1943 25.2602 30.8761 24.25 28.9998 24.25C26.9431 24.25 25.8332 25.067 25.8332 25.8333C25.8332 26.4255 25.8332 27.4167 28.9998 27.4167C34.5098 27.4167 35.3332 30.3933 35.3332 32.1667C35.3332 34.206 33.7039 36.258 30.5832 36.7821Z" fill="#0053BA"/>
</svg>
