<svg width="58" height="59" viewBox="0 0 58 59" fill="none" xmlns="http://www.w3.org/2000/svg">
<rect y="0.5" width="58" height="58" rx="29" fill="#E6FAFF"/>
<path d="M21.7807 12.083C27.7044 14.8508 33.541 17.8127 39.4528 20.6162C39.536 23.1504 39.4846 25.6885 39.4805 28.2227C39.2113 28.3732 38.942 28.5197 38.6687 28.6662C36.2336 27.3754 33.735 26.2112 31.2602 25.0035C31.181 24.9639 31.0226 24.8847 30.9434 24.8451C27.8984 23.3325 24.8336 21.8555 21.7728 20.3707C21.7767 17.6068 21.7609 14.8429 21.7807 12.083Z" fill="#00CCFF"/>
<path d="M31.1888 33.2912C31.1888 33.2912 31.1849 38.3002 31.173 40.8067C26.9362 42.8063 22.7705 44.9525 18.5178 46.9165C18.5099 44.1446 18.4743 41.3729 18.5337 38.6012C19.9394 37.8845 21.4044 37.2865 22.7785 36.5104C22.7468 34.0593 22.7626 31.6123 22.7626 29.1611C25.5384 30.3966 28.4329 32.0438 31.1888 33.3268L31.1888 33.2912Z" fill="#0053BA"/>
<path d="M31.2598 25.0034C33.7345 26.2111 36.2331 27.3752 38.6684 28.6661C36.2015 30.25 33.699 31.7746 31.1885 33.2911C31.1885 28.7015 31.1994 28.7015 31.2598 25.0034Z" fill="#F1A432"/>
</svg>
